# xmcd
#
# Track frame offsets: 
#        150
#        13971
#        28626
#        43443
#        55921
#        69152
#        83726
#        100013
#        114709
#        129489
#        143305
#        157507
#        172779
#        187425
#        201101
#        215514
#        231422
#        243969
#
# Disc length: 3445 seconds
#
# Revision: 1
# Processed by: cddbd v1.5.2PL0 Copyright (c) Steve Scherf et al.
# Submitted via: ExactAudioCopy v0.95b2
#
DISCID=f20d7312
DTITLE=Mississippi Sheiks - The Essential (Disk 2)
DYEAR=2002
DGENRE=Blues
TTITLE0=Still I'm Traveling On
TTITLE1=Stop And Listen No. 2
TTITLE2=Please Baby
TTITLE3=Jumping Out Blues
TTITLE4=Please Don't Give My Love Away
TTITLE5=Tell Me What The Cats Fight About
TTITLE6=Don't Wake It Up
TTITLE7=Livin' In A Strain
TTITLE8=Lonely One In This Town
TTITLE9=Too Long
TTITLE10=Jake Leg Blues
TTITLE11=The World Is Going Wrong
TTITLE12=She Ain't No Good
TTITLE13=She's Crazy Abut Her Lovin'
TTITLE14=Somebody's Got To Help You
TTITLE15=Shooting High Dice
TTITLE16=Stir It Now
TTITLE17=Kind Treatment
EXTD=
EXTT0=
EXTT1=
EXTT2=
EXTT3=
EXTT4=
EXTT5=
EXTT6=
EXTT7=
EXTT8=
EXTT9=
EXTT10=
EXTT11=
EXTT12=
EXTT13=
EXTT14=
EXTT15=
EXTT16=
EXTT17=
PLAYORDER=
